<svg width="500" height="500" viewBox="0 0 500 500" fill="none" xmlns="http://www.w3.org/2000/svg">
<g clip-path="url(#clip0_5_46)">
<path d="M489.258 250C489.258 382.139 382.139 489.258 250 489.258C117.861 489.258 10.7422 382.139 10.7422 250C10.7422 117.861 117.861 10.7422 250 10.7422C382.139 10.7422 489.258 117.861 489.258 250Z" fill="#1D79E4" fill-opacity="0.3"/>
<path d="M499.94 249.404C499.94 249.405 499.94 249.405 499.94 249.404C499.236 257.457 492.611 263.826 479.737 268.785C476.263 270.123 472.341 268.575 470.681 265.243C470.652 265.185 470.623 265.128 470.595 265.07C468.677 261.232 470.531 256.602 474.541 255.074C482.654 251.983 485.249 249.247 485.347 248.127C485.56 245.692 475.487 233.696 422.32 219.488C377.593 207.536 317.492 197.851 253.091 192.217C215.179 188.899 178.489 187.225 145.314 187.225C122.134 187.225 100.668 188.042 81.6974 189.689C26.8702 194.45 14.8673 204.515 14.6554 206.95C14.59 207.697 15.4933 209.346 18.3146 211.682C23.5812 216.044 20.504 224.609 13.6632 224.609C11.9728 224.609 10.3185 224.037 9.02453 222.95C2.47863 217.456 -0.469615 211.744 0.0616356 205.674C0.858511 196.562 9.23547 189.605 25.6691 184.408C38.8448 180.241 57.2696 177.108 80.4298 175.098C127.375 171.021 189.147 171.92 254.368 177.625C319.591 183.331 380.58 193.173 426.103 205.339C448.562 211.341 466.162 217.625 478.415 224.017C493.695 231.988 500.736 240.293 499.94 249.404Z" fill="#7EB7F9"/>
<path d="M399.867 239.371L334.746 410.312C329.262 424.71 311.824 430.284 299.006 421.737C293.202 417.868 289.369 411.666 288.504 404.745L282.285 354.991C282.285 354.991 281.514 329.838 271.468 310.505C262.349 292.956 237.298 292.775 228.535 310.505C220.387 326.991 217.896 353.564 217.896 353.564L211.498 404.745C210.633 411.666 206.8 417.868 200.996 421.737C188.177 430.283 170.74 424.709 165.256 410.312L100.135 239.37C90.1807 213.241 88.4796 184.687 95.2618 157.562L108.164 105.953C114.189 81.8555 138.405 67.0234 162.609 72.6094L186.812 78.1943C196.176 80.3555 205.955 79.3818 214.804 75.6328C237.697 65.9336 262.307 65.9336 285.2 75.6328C294.05 79.3818 303.828 80.3555 313.192 78.1943L337.395 72.6094C361.598 67.0244 385.815 81.8555 391.84 105.953L404.742 157.562C411.521 184.688 409.82 213.241 399.867 239.371Z" fill="#ECECF1"/>
<path d="M204.622 410.312C205.341 412.2 206.267 413.936 207.359 415.509C205.664 417.936 203.516 420.058 200.995 421.737C188.176 430.283 170.739 424.709 165.255 410.312L100.134 239.37C90.1798 213.241 88.4786 184.687 95.2608 157.561L108.163 105.953C114.188 81.8554 138.404 67.0233 162.608 72.6093L173.687 75.1659C161.096 80.6073 151.108 91.6474 147.531 105.953L134.629 157.561C127.848 184.687 129.549 213.241 139.502 239.37L204.622 410.312ZM318.877 404.746L312.658 354.992C312.658 354.992 311.887 329.839 301.841 310.506C295.83 298.939 267.05 293.971 250.234 297.28C258.61 297.428 266.974 301.857 271.467 310.506C281.514 329.839 282.284 354.992 282.284 354.992L288.503 404.746C289.368 411.667 293.201 417.869 299.005 421.738C308.165 427.845 319.683 426.741 327.512 420.361L327.514 420.36C322.759 416.478 319.646 410.895 318.877 404.746Z" fill="#D3D3D8"/>
<path d="M324.796 241.755C310.901 229.286 324.497 209.217 319.348 171.27C315.895 145.832 307.648 138.772 313.558 128.272C320.634 115.699 341.915 109.688 356.081 116.123C383.177 128.431 375.838 181.582 375.064 186.742C371.141 212.928 355.686 247.023 337.325 247.07C330.869 247.087 326.06 242.89 324.796 241.755Z" fill="#FFF5F5"/>
<path d="M224.609 185.547C224.609 189.592 221.33 192.871 217.285 192.871H212.402V197.754C212.402 201.799 209.123 205.078 205.078 205.078C201.033 205.078 197.754 201.799 197.754 197.754V192.871H192.871C188.826 192.871 185.547 189.592 185.547 185.547C185.547 181.502 188.826 178.223 192.871 178.223H197.754V173.34C197.754 169.295 201.033 166.016 205.078 166.016C209.123 166.016 212.402 169.295 212.402 173.34V178.223H217.285C221.33 178.223 224.609 181.502 224.609 185.547Z" fill="#1D79E4"/>
<path d="M205.078 241.887V275.69C205.078 281.913 200.033 286.958 193.811 286.958H160.007V320.762C160.007 326.984 154.962 332.029 148.739 332.029H114.936C108.713 332.029 103.668 326.984 103.668 320.762V286.958H69.8614C63.6387 286.958 58.5938 281.913 58.5938 275.69V241.887C58.5938 235.663 63.6387 230.618 69.8614 230.618H103.665V196.814C103.665 190.591 108.71 185.547 114.933 185.547H148.736C154.959 185.547 160.004 190.592 160.004 196.814V230.618H193.808C200.033 230.619 205.078 235.664 205.078 241.887ZM499.939 249.405C499.142 258.517 490.766 265.473 474.332 270.67C461.156 274.837 442.731 277.97 419.571 279.98C400.205 281.662 378.31 282.497 354.694 282.497C321.066 282.497 283.948 280.805 245.633 277.452C237.478 276.738 229.388 275.961 221.387 275.121C217.663 274.73 214.845 271.58 214.845 267.837C214.845 263.493 218.601 260.102 222.921 260.555C230.835 261.385 238.839 262.154 246.91 262.86C311.312 268.495 372.18 269.392 418.305 265.388C473.132 260.627 485.135 250.563 485.347 248.127C485.699 244.098 489.242 241.123 493.281 241.47C497.311 241.823 500.292 245.375 499.939 249.405ZM44.1026 224.981C19.9307 215.737 14.4961 208.745 14.6534 206.95C15.0059 202.921 12.0254 199.369 7.99516 199.016C3.9727 198.667 0.413128 201.644 0.0605886 205.673C-0.736286 214.784 6.30473 223.089 21.586 231.062C26.5108 233.631 32.2989 236.183 38.92 238.705C43.7032 240.527 48.8311 236.97 48.8311 231.852V231.828C48.8311 228.787 46.9444 226.068 44.1026 224.981Z" fill="#1D79E4"/>
<path d="M205.078 241.887V275.69C205.078 281.913 200.033 286.958 193.811 286.958H160.007V320.762C160.007 326.984 154.962 332.029 148.739 332.029H131.836V185.547H148.738C154.961 185.547 160.006 190.592 160.006 196.814V230.618H193.81C200.033 230.619 205.078 235.664 205.078 241.887ZM205.078 126.953C205.078 130.998 201.799 134.277 197.754 134.277H192.871V139.16C192.871 143.205 189.592 146.484 185.547 146.484C181.502 146.484 178.223 143.205 178.223 139.16V134.277H173.34C169.295 134.277 166.016 130.998 166.016 126.953C166.016 122.908 169.295 119.629 173.34 119.629H178.223V114.746C178.223 110.701 181.502 107.422 185.547 107.422C189.592 107.422 192.871 110.701 192.871 114.746V119.629H197.754C201.799 119.629 205.078 122.908 205.078 126.953Z" fill="#7EB7F9"/>
</g>
<defs>
<clipPath id="clip0_5_46">
<rect width="500" height="500" fill="white"/>
</clipPath>
</defs>
</svg>
