<svg width="128" height="40" viewBox="0 0 128 40" fill="none" xmlns="http://www.w3.org/2000/svg">
<rect width="40" height="40" fill="#1D79E4"/>
<path d="M10.7656 33V6.036H10.8016L24.6256 25.656L23.0056 25.332L36.7936 6.036H36.8656V33H33.1216V14.568L33.3376 16.476L23.6896 30.192H23.6176L13.7536 16.476L14.4016 14.712V33H10.7656Z" fill="white"/>
<path d="M50.4264 33.36C48.6984 33.36 47.2104 33.024 45.9624 32.352C44.7144 31.656 43.7544 30.708 43.0824 29.508C42.4104 28.284 42.0744 26.904 42.0744 25.368C42.0744 23.88 42.4464 22.536 43.1904 21.336C43.9584 20.112 44.9784 19.14 46.2504 18.42C47.5224 17.7 48.9384 17.34 50.4984 17.34C52.5144 17.34 54.1824 17.928 55.5024 19.104C56.8464 20.256 57.7464 21.888 58.2024 24L45.9264 28.248L45.0624 26.16L54.9264 22.56L54.1704 23.064C53.8824 22.296 53.4264 21.636 52.8024 21.084C52.1784 20.508 51.3264 20.22 50.2464 20.22C48.9024 20.22 47.7984 20.688 46.9344 21.624C46.0944 22.536 45.6744 23.712 45.6744 25.152C45.6744 26.688 46.1304 27.924 47.0424 28.86C47.9544 29.796 49.1064 30.264 50.4984 30.264C51.1464 30.264 51.7704 30.156 52.3704 29.94C52.9704 29.7 53.5344 29.388 54.0624 29.004L55.7184 31.704C54.9504 32.208 54.0984 32.616 53.1624 32.928C52.2504 33.216 51.3384 33.36 50.4264 33.36ZM68.4404 33.36C67.0244 33.36 65.7524 33.036 64.6244 32.388C63.4964 31.716 62.6084 30.768 61.9604 29.544C61.3124 28.32 60.9884 26.892 60.9884 25.26C60.9884 23.58 61.3364 22.152 62.0324 20.976C62.7284 19.8 63.6644 18.9 64.8404 18.276C66.0404 17.652 67.3844 17.34 68.8724 17.34C70.0244 17.34 71.1164 17.58 72.1484 18.06C73.2044 18.516 74.0324 19.164 74.6324 20.004L74.4884 21.264V5.028H78.1244V33H74.4524V29.4L74.8484 30.372C74.1284 31.236 73.2164 31.956 72.1124 32.532C71.0324 33.084 69.8084 33.36 68.4404 33.36ZM69.5564 30.3C70.8284 30.3 71.8844 29.976 72.7244 29.328C73.5884 28.656 74.1644 27.768 74.4524 26.664V23.676C74.1884 22.668 73.6004 21.84 72.6884 21.192C71.8004 20.544 70.7564 20.22 69.5564 20.22C68.6924 20.22 67.8884 20.436 67.1444 20.868C66.4004 21.276 65.8004 21.864 65.3444 22.632C64.9124 23.376 64.6964 24.24 64.6964 25.224C64.6964 26.16 64.9124 27.012 65.3444 27.78C65.8004 28.548 66.4004 29.16 67.1444 29.616C67.8884 30.072 68.6924 30.3 69.5564 30.3ZM83.8001 17.952H87.4361V33H83.8001V17.952ZM83.6201 12.552C83.6201 12 83.8361 11.532 84.2681 11.148C84.7241 10.764 85.2161 10.572 85.7441 10.572C86.2721 10.572 86.7521 10.764 87.1841 11.148C87.6161 11.532 87.8321 12 87.8321 12.552C87.8321 13.152 87.6161 13.632 87.1841 13.992C86.7521 14.352 86.2721 14.532 85.7441 14.532C85.2161 14.532 84.7241 14.352 84.2681 13.992C83.8361 13.632 83.6201 13.152 83.6201 12.552ZM105.428 31.596C104.756 32.148 103.94 32.58 102.98 32.892C102.044 33.204 101.096 33.36 100.136 33.36C98.5045 33.36 97.0525 33.036 95.7805 32.388C94.5325 31.74 93.5605 30.828 92.8645 29.652C92.1685 28.476 91.8205 27.084 91.8205 25.476C91.8205 23.844 92.1925 22.44 92.9365 21.264C93.6805 20.088 94.6525 19.188 95.8525 18.564C97.0765 17.916 98.3845 17.592 99.7765 17.592C101.024 17.592 102.116 17.76 103.052 18.096C104.012 18.432 104.84 18.9 105.536 19.5L103.736 21.84C103.328 21.504 102.812 21.204 102.188 20.94C101.564 20.676 100.868 20.544 100.1 20.544C99.2365 20.544 98.4445 20.76 97.7245 21.192C97.0285 21.624 96.4765 22.212 96.0685 22.956C95.6605 23.7 95.4565 24.54 95.4565 25.476C95.4565 26.388 95.6605 27.216 96.0685 27.96C96.5005 28.704 97.0885 29.292 97.8325 29.724C98.6005 30.156 99.4645 30.372 100.424 30.372C101.048 30.372 101.624 30.276 102.152 30.084C102.704 29.892 103.184 29.64 103.592 29.328L105.428 31.596ZM108.379 25.332C108.379 23.82 108.739 22.464 109.459 21.264C110.179 20.04 111.175 19.08 112.447 18.384C113.719 17.688 115.171 17.34 116.803 17.34C118.459 17.34 119.899 17.688 121.123 18.384C122.371 19.08 123.331 20.04 124.003 21.264C124.699 22.464 125.047 23.82 125.047 25.332C125.047 26.844 124.699 28.212 124.003 29.436C123.307 30.636 122.335 31.596 121.087 32.316C119.863 33.012 118.411 33.36 116.731 33.36C115.147 33.36 113.719 33.036 112.447 32.388C111.199 31.74 110.203 30.816 109.459 29.616C108.739 28.392 108.379 26.964 108.379 25.332ZM112.051 25.368C112.051 26.304 112.255 27.156 112.663 27.924C113.071 28.668 113.623 29.268 114.319 29.724C115.039 30.156 115.831 30.372 116.695 30.372C118.063 30.372 119.179 29.892 120.043 28.932C120.931 27.972 121.375 26.784 121.375 25.368C121.375 23.952 120.931 22.764 120.043 21.804C119.179 20.82 118.063 20.328 116.695 20.328C115.807 20.328 115.015 20.556 114.319 21.012C113.623 21.468 113.071 22.08 112.663 22.848C112.255 23.616 112.051 24.456 112.051 25.368Z" fill="#1D79E4"/>
</svg>
